# WaveFront *.obj file (generated by CINEMA 4D)

mtllib ./PlayArea_Collision.mtl

v -27.50000000000000 -1.11416862690283 -15.00000000000000
v -27.50000000000000 0.13583137309717 -15.00000000000000
v -13.75000000000000 -1.11416862690283 -15.00000000000000
v -13.75000000000000 0.13583137309717 -15.00000000000000
v 0.00000000000000 -1.11416862690283 -15.00000000000000
v 0.00000000000000 0.13583137309717 -15.00000000000000
v 13.75000000000000 -1.11416862690283 -15.00000000000000
v 13.75000000000000 0.13583137309717 -15.00000000000000
v 27.50000000000000 -1.11416862690283 -15.00000000000000
v 27.50000000000000 0.13583137309717 -15.00000000000000
v 27.50000000000000 -1.11416862690283 0.00000000000000
v 27.50000000000000 0.13583137309717 0.00000000000000
v 27.50000000000000 -1.11416862690283 15.00000000000000
v 27.50000000000000 0.13583137309717 15.00000000000000
v 13.75000000000000 -1.11416862690283 15.00000000000000
v 13.75000000000000 0.13583137309717 15.00000000000000
v 0.00000000000000 -1.11416862690283 15.00000000000000
v 0.00000000000000 0.13583137309717 15.00000000000000
v -13.75000000000000 -1.11416862690283 15.00000000000000
v -13.75000000000000 0.13583137309717 15.00000000000000
v -27.50000000000000 -1.11416862690283 15.00000000000000
v -27.50000000000000 0.13583137309717 15.00000000000000
v -27.50000000000000 -1.11416862690283 0.00000000000000
v -27.50000000000000 0.13583137309717 0.00000000000000
v -13.75000000000000 0.13583137309717 0.00000000000000
v 13.75000000000000 0.13583137309717 0.00000000000000
v -13.75000000000000 -1.11416862690283 0.00000000000000
v 13.75000000000000 -1.11416862690283 0.00000000000000
v -5.50000000000000 0.13583137309717 0.00000000000000
v 5.50000000000000 -1.11416862690283 0.00000000000000
v 0.00000000000000 -1.11416862690283 5.41644264156714
v 5.50000000000000 0.13583137309717 0.00000000000000
v 0.00000000000000 -1.11416862690283 -5.41644264156714
v 0.00000000000000 0.13583137309717 5.41644264156715
v -5.50000000000000 -1.11416862690283 0.00000000000000
v 0.00000000000000 0.13583137309717 -5.41644264156715
v -5.16830941432250 0.13583137309717 -1.88111078829118
v 2.75000000000000 0.13583137309717 -4.76313972081442
v -2.75000000000000 0.13583137309717 -4.76313972081441
v -4.21324443715438 0.13583137309717 -3.53533185327596
v -0.95506497716812 0.13583137309717 -5.41644264156714
v -0.95506497716812 0.13583137309717 5.41644264156714
v 0.95506497716811 0.13583137309717 -5.41644264156715
v -4.21324443715438 0.13583137309717 3.53533185327597
v 4.21324443715438 0.13583137309717 -3.53533185327597
v 5.16830941432250 0.13583137309717 -1.88111078829118
v 5.16830941432250 0.13583137309717 1.88111078829118
v 4.21324443715438 0.13583137309717 3.53533185327597
v -2.75000000000000 0.13583137309717 4.76313972081441
v 0.95506497716812 0.13583137309717 5.41644264156714
v -5.16830941432250 0.13583137309717 1.88111078829118
v -0.95506497716812 -1.11416862690283 5.41644264156714
v -2.75000000000000 -1.11416862690283 4.76313972081441
v 2.75000000000000 0.13583137309717 4.76313972081441
v -5.16830941432250 -1.11416862690283 1.88111078829118
v 5.16830941432250 -1.11416862690283 1.88111078829118
v 4.21324443715438 -1.11416862690283 3.53533185327597
v 2.75000000000000 -1.11416862690283 4.76313972081441
v -4.21324443715438 -1.11416862690283 3.53533185327597
v 0.95506497716812 -1.11416862690283 5.41644264156714
v -5.16830941432250 -1.11416862690283 -1.88111078829118
v -4.21324443715438 -1.11416862690283 -3.53533185327596
v -2.75000000000000 -1.11416862690283 -4.76313972081441
v -0.95506497716812 -1.11416862690283 -5.41644264156714
v 0.95506497716811 -1.11416862690283 -5.41644264156715
v 2.75000000000000 -1.11416862690283 -4.76313972081442
v 4.21324443715438 -1.11416862690283 -3.53533185327597
v 5.16830941432250 -1.11416862690283 -1.88111078829118
v -0.95506497716812 0.13583137309717 -5.41644264156714
v 5.16830941432250 0.13583137309717 -1.88111078829118
v 5.50000000000000 0.13583137309717 0.00000000000000
v 4.21324443715438 0.13583137309717 3.53533185327597
v 2.75000000000000 0.13583137309717 4.76313972081441
v -4.21324443715438 0.13583137309717 3.53533185327597
v 5.16830941432250 0.13583137309717 1.88111078829118
v -4.21324443715438 -1.11416862690283 3.53533185327597
v -5.50000000000000 -1.11416862690283 0.00000000000000
v 0.95506497716812 0.13583137309717 5.41644264156714
v -0.95506497716812 -1.11416862690283 5.41644264156714
v -2.75000000000000 -1.11416862690283 4.76313972081441
v 0.95506497716811 -1.11416862690283 -5.41644264156715
v 5.50000000000000 -1.11416862690283 0.00000000000000
v -4.21324443715438 -1.11416862690283 -3.53533185327596
v 0.95506497716812 -1.11416862690283 5.41644264156714
v 2.75000000000000 -1.11416862690283 -4.76313972081442
v 0.00000000000000 -1.11416862690283 -5.41644264156714
# 86 vertices

vn 0.00000000000000 0.00000000000000 -1.00000000000000
vn 1.00000000000000 0.00000000000000 0.00000000000000
vn 0.00000000000000 0.00000000000000 1.00000000000000
vn -1.00000000000000 0.00000000000000 0.00000000000000
vn 0.00000000000000 1.00000000000000 0.00000000000000
vn 0.00000000000000 0.00000000000000 0.00000000000000
vn 0.00000000000000 -1.00000000000000 0.00000000000000
vn -1.00000000000000 0.00000000000000 0.00000000000000
vn -0.93969260029904 0.00000000000000 -0.34202019961288
vn -0.76604445768094 0.00000000000000 -0.64278759233227
vn -0.50000010305321 0.00000000000000 -0.86602534428663
vn -0.17364825479217 0.00000000000000 -0.98480773941294
vn 0.17364825479217 0.00000000000000 -0.98480773941294
vn 0.50000010305321 0.00000000000000 -0.86602534428663
vn 0.76604445768094 0.00000000000000 -0.64278759233227
vn 0.93969260029904 0.00000000000000 -0.34202019961288
vn 1.00000000000000 0.00000000000000 0.00000000000000
vn 0.93969260029904 0.00000000000000 0.34202019961288
vn 0.76604445768094 0.00000000000000 0.64278759233227
vn 0.50000010305321 0.00000000000000 0.86602534428663
vn 0.17364825479217 0.00000000000000 0.98480773941294
vn -0.17364825479217 0.00000000000000 0.98480773941294
vn -0.50000010305321 0.00000000000000 0.86602534428663
vn -0.76604445768094 0.00000000000000 0.64278759233227
vn -0.93969260029904 0.00000000000000 0.34202019961288
# 25 normals

o PlayAreaCollision
usemtl default
f 1//1 2//1 4//1 3//1
f 3//1 4//1 6//1 5//1
f 5//1 6//1 8//1 7//1
f 7//1 8//1 10//1 9//1
f 9//2 10//2 12//2 11//2
f 11//2 12//2 14//2 13//2
f 13//3 14//3 16//3 15//3
f 15//3 16//3 18//3 17//3
f 17//3 18//3 20//3 19//3
f 19//3 20//3 22//3 21//3
f 21//4 22//4 24//4 23//4
f 23//4 24//4 2//4 1//4
f 2//5 24//5 25//5 4//5
f 36//5 6//5 4//5 41//5
f 4//5 25//5 29//5 37//5
f 4//5 37//5 40//5
f 39//5 41//5 4//5
f 4//5 40//5 39//5
f 32//5 26//5 8//5 46//5
f 8//5 6//5 36//5 43//5
f 45//5 46//5 8//5
f 8//5 43//5 38//5
f 38//5 45//5 8//5
f 8//5 26//5 12//5 10//5
f 24//5 22//5 20//5 25//5
f 51//5 29//5 25//5 20//5
f 20//5 18//5 34//5 42//5
f 44//5 51//5 20//5
f 20//5 42//5 49//5
f 20//5 49//5 44//5
f 50//5 34//5 18//5
f 54//5 50//5 18//5 16//5
f 26//5 32//5 47//5 16//5
f 48//5 54//5 16//5
f 48//5 16//5 47//5
f 26//5 16//5 14//5 12//5
f 21//7 23//7 27//7 19//7
f 52//7 31//7 17//7
f 27//7 35//7 55//7 19//7
f 53//7 52//7 17//7 19//7
f 59//7 53//7 19//7
f 59//7 19//7 55//7
f 30//7 28//7 15//7 56//7
f 15//7 17//7 31//7 60//7
f 57//7 56//7 15//7
f 15//7 60//7 58//7
f 15//7 58//7 57//7
f 15//7 28//7 11//7 13//7
f 23//7 1//7 3//7 27//7
f 35//7 27//7 3//7 61//7
f 3//7 5//7 33//7 64//7
f 62//7 61//7 3//7
f 3//7 64//7 63//7
f 63//7 62//7 3//7
f 33//7 5//7 7//7 65//7
f 7//7 28//7 30//7 68//7
f 7//7 68//7 67//7
f 66//7 65//7 7//7
f 7//7 67//7 66//7
f 28//7 7//7 9//7 11//7
f 71//8 82//8 56//9 75//9
f 75//9 56//9 57//10 72//10
f 58//11 73//11 72//10 57//10
f 84//12 78//12 73//11 58//11
f 34//1 78//12 84//12 31//1
f 31//1 79//13 42//13 34//1
f 80//14 49//14 42//13 79//13
f 76//15 74//15 49//14 80//14
f 74//15 76//15 55//16 51//16
f 51//16 55//16 77//17 29//17
f 29//17 77//17 61//18 37//18
f 37//18 61//18 83//19 40//19
f 40//19 83//19 63//20 39//20
f 39//20 63//20 64//21 69//21
f 69//21 64//21 86//3 36//3
f 43//22 36//3 86//3 81//22
f 43//22 81//22 85//23 38//23
f 38//23 85//23 67//24 45//24
f 45//24 67//24 68//25 70//25
f 70//25 68//25 82//8 71//8

