# WaveFront *.obj file (generated by CINEMA 4D)

mtllib ./Hedge_M.mtl

v -2.90000000000000 0.00000000000000 0.69975565048920
v -2.97033190941395 2.25276591178293 0.78986628696052
v -2.97033190941395 2.25276591178293 -0.78986628696052
v -2.90000000000000 0.00000000000000 -0.69975565048920
v -2.68278792146185 0.00000000000000 -0.90000000000000
v -2.76780549464297 2.25031191528054 -0.99001247661122
v 2.76780549464297 2.25031191528054 -0.99001247661122
v 2.68278792146185 0.00000000000000 -0.90000000000000
v -2.80000000000000 2.50000000000000 -0.80000000000000
v -2.80000000000000 2.50000000000000 0.80000000000000
v 2.80000000000000 2.50000000000000 0.80000000000000
v 2.80000000000000 2.50000000000000 -0.80000000000000
v 2.90000000000000 0.00000000000000 -0.69975565048920
v 2.97033190941395 2.25276591178293 -0.78986628696052
v 2.97033190941395 2.25276591178293 0.78986628696052
v 2.90000000000000 0.00000000000000 0.69975565048920
v 2.68278792146185 0.00000000000000 0.90000000000000
v 2.76780549464297 2.25031191528054 0.99001247661122
v -2.76780549464297 2.25031191528054 0.99001247661122
v -2.68278792146185 0.00000000000000 0.90000000000000
v -2.87225342012171 0.00000000000000 0.79768348286577
v -2.78901368048684 0.00000000000000 0.87442087071644
v -2.94167940994609 2.35829041256005 0.88217828482338
v -2.94816347202516 2.25260132366160 0.88093728584079
v -2.85992448668693 2.25153216163387 0.96815435908020
v -2.86934648694547 2.35866450036007 0.95371233291160
v -2.78232457128297 2.36291623697869 0.97236160382149
v -2.79642892790060 2.47230415118958 0.88909950558602
v -2.87952414859009 2.44869146868583 0.88547349967272
v -2.88516650183003 2.47184004205145 0.79884577027742
v -2.96069014692332 2.36222164438861 0.79435269493424
v -2.94167940994609 2.35829041256005 -0.88217828482338
v -2.96069014692332 2.36222164438861 -0.79435269493424
v -2.88516650183003 2.47184004205145 -0.79884577027742
v -2.87952414859009 2.44869146868583 -0.88547349967272
v -2.79642892790060 2.47230415118958 -0.88909950558602
v -2.78232457128297 2.36291623697869 -0.97236160382149
v -2.86934648694547 2.35866450036007 -0.95371233291160
v -2.85992448668693 2.25153216163387 -0.96815435908020
v -2.94816347202516 2.25260132366160 -0.88093728584079
v -2.87225342012171 0.00000000000000 -0.79768348286577
v -2.78901368048684 0.00000000000000 -0.87442087071644
v 2.86934648694547 2.35866450036007 -0.95371233291160
v 2.78232457128297 2.36291623697869 -0.97236160382149
v 2.79642892790060 2.47230415118958 -0.88909950558602
v 2.87952414859009 2.44869146868583 -0.88547349967272
v 2.88516650183003 2.47184004205145 -0.79884577027742
v 2.96069014692332 2.36222164438861 -0.79435269493424
v 2.94167940994609 2.35829041256005 -0.88217828482338
v 2.94816347202516 2.25260132366160 -0.88093728584079
v 2.85992448668693 2.25153216163387 -0.96815435908020
v 2.78901368048684 0.00000000000000 -0.87442087071644
v 2.87225342012171 0.00000000000000 -0.79768348286577
v 2.87952414859009 2.44869146868583 0.88547349967272
v 2.79642892790060 2.47230415118958 0.88909950558602
v 2.78232457128297 2.36291623697869 0.97236160382149
v 2.86934648694547 2.35866450036007 0.95371233291160
v 2.85992448668693 2.25153216163387 0.96815435908020
v 2.94816347202516 2.25260132366160 0.88093728584079
v 2.94167940994609 2.35829041256005 0.88217828482338
v 2.96069014692332 2.36222164438861 0.79435269493424
v 2.88516650183002 2.47184004205145 0.79884577027742
v 2.87225342012171 0.00000000000000 0.79768348286577
v 2.78901368048684 0.00000000000000 0.87442087071644
# 64 vertices

vn -0.11706787581593 -0.04413727759056 -0.99214263751682
vn -0.11458602658064 0.04663374319907 -0.99231816294357
vn 0.11458623015173 0.04663153135550 -0.99231824337914
vn 0.11706822601721 -0.04414170324457 -0.99214239930156
vn 0.99107289038606 -0.03646298268479 -0.12823796955482
vn 0.99243603012588 0.02076340174468 -0.12099424472248
vn 0.99243639757991 0.02074660398610 0.12099411217761
vn 0.99107171670306 -0.03649658920441 0.12823748019863
vn 0.11706787581593 -0.04413727759056 0.99214263751682
vn 0.11458602658064 0.04663374319907 0.99231816294357
vn -0.11458623015173 0.04663153135550 0.99231824337914
vn -0.11706822601721 -0.04414170324457 0.99214239930156
vn -0.99107289038606 -0.03646298268479 0.12823796955482
vn -0.99243603012588 0.02076340174468 0.12099424472248
vn -0.99243639757991 0.02074660398610 -0.12099411217761
vn -0.99107171670306 -0.03649658920441 -0.12823748019863
vn -0.15436027338240 0.97693752878513 -0.14753294836246
vn -0.15436027338240 0.97693752878513 0.14753294836246
vn 0.15436027338240 0.97693752878513 0.14753294836246
vn 0.15436027338240 0.97693752878513 -0.14753294836246
vn 0.00000000000000 -1.00000000000000 0.00000000000000
vn -0.00000000000000 -1.00000000000000 -0.00000000000000
vn -0.00000000000000 -1.00000000000000 -0.00000000000000
vn -0.00000000000000 -1.00000000000000 -0.00000000000000
vn -0.47761724524500 -0.05102017269540 -0.87708534876756
vn -0.48004405036338 0.01382999812270 -0.87713536062722
vn 0.12925197970039 0.80897529486299 -0.57345697139791
vn -0.12927063171885 0.80897363308120 -0.57345511136829
vn 0.48004349598977 0.01382452895304 -0.87713575024459
vn 0.47761330507442 -0.05106850394311 -0.87708468161341
vn 0.93713788470417 0.33096229426899 -0.11061891711817
vn 0.93713730349261 0.33096168595727 0.11062566081576
vn 0.47761724524500 -0.05102017269540 0.87708534876756
vn 0.48004405036338 0.01382999812270 0.87713536062722
vn -0.12925197970039 0.80897529486299 0.57345697139791
vn 0.12927063171885 0.80897363308120 0.57345511136829
vn -0.48004349598977 0.01382452895304 0.87713575024459
vn -0.47761330507442 -0.05106850394311 0.87708468161341
vn -0.93713788470417 0.33096229426899 0.11061891711817
vn -0.93713730349261 0.33096168595727 -0.11062566081576
vn -0.46878299191382 0.30488907297247 0.82902663387512
vn -0.83287705301010 0.28465611190319 0.47464377434595
vn -0.86718296072611 0.00241562714837 0.49798381235918
vn -0.52799536155366 0.66982352854932 -0.52207024314699
vn -0.83287815871046 0.28463685044783 -0.47465338522992
vn -0.59525537950862 0.79332745688315 -0.12768155435053
vn 0.52798235852550 0.66983336763564 -0.52207076980784
vn 0.46878299191382 0.30488907297247 -0.82902663387512
vn 0.10876641005908 0.37764842851877 -0.91953876072744
vn 0.46880088142402 0.30486685613770 0.82902468817568
vn 0.52799536155366 0.66982352854932 0.52207024314699
vn 0.10878465854233 0.37764631560126 0.91953746980676
vn -0.52798235852550 0.66983336763564 0.52207076980784
vn -0.10876641005908 0.37764842851877 0.91953876072744
vn -0.59525617898485 0.79332796652708 0.12767466039262
vn 0.00000000000000 0.00000000000000 0.00000000000000
vn -0.46880085817148 0.30486686039710 -0.82902469975828
vn -0.10878465854233 0.37764631560126 -0.91953746980676
vn -0.86718292783881 0.00240147870453 -0.49798393805919
vn 0.83287705301010 0.28465611190319 -0.47464377434595
vn 0.59525617898485 0.79332796652708 -0.12767466039262
vn 0.86718296072611 0.00241562714837 -0.49798381235918
vn 0.83287815871046 0.28463685044783 0.47465338522992
vn 0.86718292783881 0.00240147870453 0.49798393805919
vn 0.59525537950862 0.79332745688315 0.12768155435053
vn -0.86038420370254 -0.04780256997704 -0.50739918833473
vn 0.86038269683610 -0.04781196712734 -0.50740085808408
vn 0.86038420370254 -0.04780256997704 0.50739918833473
vn -0.86038269683610 -0.04781196712734 0.50740085808408
# 69 normals

o Hedge_M
usemtl default
f 5//1 6//2 7//3 8//4
f 13//5 14//6 15//7 16//8
f 17//9 18//10 19//11 20//12
f 1//13 2//14 3//15 4//16
f 9//17 10//18 11//19 12//20
f 20//21 22//21 21//21 1//21 4//21 41//21 42//21 5//21 8//21 52//21 53//22 13//21 16//21 63//21 64//21 17//21
f 1 1 1
f 1 1 1
f 1 1 1
f 1 1 1
f 1 1 1
f 1 1 1
f 5//1 42//25 39//26 6//2
f 12//20 45//27 36//28 9//17
f 7//3 51//29 52//30 8//4
f 14//6 48//31 61//32 15//7
f 17//9 64//33 58//34 18//10
f 10//18 28//35 55//36 11//19
f 19//11 25//37 22//38 20//12
f 2//14 31//39 33//40 3//15
f 26//41 23//42 24//43 25//37
f 35//44 32//45 33//40 34//46
f 46//47 43//48 44//49 45//27
f 57//50 54//51 55//36 56//52
f 29//53 26//41 27//54 28//35
f 23//42 29//53 30//55 31//39
f 23//42 26//41 29//53
f 26//41 25//37 19//11 27//54
f 29//53 28//35 10//18 30//55
f 23//42 31//39 2//14 24//43
f 38//57 35//44 36//28 37//58
f 32//45 38//57 39//26 40//59
f 32//45 35//44 38//57
f 35//44 34//46 9//17 36//28
f 38//57 37//58 6//2 39//26
f 32//45 40//59 3//15 33//40
f 49//60 46//47 47//61 48//31
f 43//48 49//60 50//62 51//29
f 43//48 46//47 49//60
f 46//47 45//27 12//20 47//61
f 49//60 48//31 14//6 50//62
f 43//48 51//29 7//3 44//49
f 60//63 57//50 58//34 59//64
f 54//51 60//63 61//32 62//65
f 54//51 57//50 60//63
f 57//50 56//52 18//10 58//34
f 60//63 59//64 15//7 61//32
f 54//51 62//65 11//19 55//36
f 42//25 41//66 40//59 39//26
f 41//66 4//16 3//15 40//59
f 45//27 44//49 37//58 36//28
f 44//49 7//3 6//2 37//58
f 51//29 50//62 53//67 52//30
f 50//62 14//6 13//5 53//67
f 48//31 47//61 62//65 61//32
f 47//61 12//20 11//19 62//65
f 64//33 63//68 59//64 58//34
f 63//68 16//8 15//7 59//64
f 28//35 27//54 56//52 55//36
f 27//54 19//11 18//10 56//52
f 25//37 24//43 21//69 22//38
f 24//43 2//14 1//13 21//69
f 31//39 30//55 34//46 33//40
f 30//55 10//18 9//17 34//46

