# WaveFront *.obj file (generated by CINEMA 4D)

mtllib ./Hedge_S.mtl

v -1.67042076901699 0.00000000000000 0.70000000000000
v -1.67042076901699 0.00000000000000 -0.70000000000000
v 1.67042076901699 0.00000000000000 -0.70000000000000
v 1.67042076901699 0.00000000000000 0.70000000000000
v -1.90000000000000 0.24875929755250 0.70970300013161
v -1.98009925619580 2.25124070244750 0.78980225632741
v -1.98009925619580 2.25124070244750 -0.78980225632741
v -1.90000000000000 0.24875929755250 -0.70970300013161
v -1.69023615184305 0.24968808471946 -0.90998752338878
v -1.77902992220484 2.25031191528054 -0.99001247661122
v 1.77902992220484 2.25031191528054 -0.99001247661122
v 1.69023615184305 0.24968808471946 -0.90998752338878
v -1.80000000000000 2.50000000000000 -0.80000000000000
v -1.80000000000000 2.50000000000000 0.80000000000000
v 1.80000000000000 2.50000000000000 0.80000000000000
v 1.80000000000000 2.50000000000000 -0.80000000000000
v 1.90000000000000 0.24875929755250 -0.70970300013161
v 1.98009925619580 2.25124070244750 -0.78980225632741
v 1.98009925619580 2.25124070244750 0.78980225632741
v 1.90000000000000 0.24875929755250 0.70970300013161
v 1.69023615184305 0.24968808471946 0.90998752338878
v 1.77902992220484 2.25031191528054 0.99001247661122
v -1.77902992220484 2.25031191528054 0.99001247661122
v -1.69023615184305 0.24968808471946 0.90998752338878
v -1.76639153957005 0.04952981264383 0.78934387036626
v -1.67256295565408 0.02699309335692 0.79279988562220
v -1.68114910124719 0.13518470727046 0.88379444242215
v -1.77285597410695 0.13957371493627 0.86541915853905
v -1.78564627884859 0.24915942644983 0.88805672488279
v -1.87703302300600 0.24875479315311 0.80079544992153
v -1.84901023251329 0.13886951057223 0.79247329645476
v -1.86810021334513 0.13379152482699 0.70521861572925
v -1.76914158547695 0.02656696500859 0.70103625982028
v -1.76639153957005 0.04952981264383 -0.78934387036626
v -1.76914158547695 0.02656696500859 -0.70103625982028
v -1.86810021334513 0.13379152482699 -0.70521861572925
v -1.84901023251329 0.13886951057223 -0.79247329645476
v -1.87703302300600 0.24875479315311 -0.80079544992153
v -1.78564627884859 0.24915942644983 -0.88805672488279
v -1.77285597410695 0.13957371493627 -0.86541915853905
v -1.68114910124719 0.13518470727046 -0.88379444242215
v -1.67256295565408 0.02699309335692 -0.79279988562220
v 1.76639153957005 0.04952981264383 -0.78934387036626
v 1.67256295565408 0.02699309335692 -0.79279988562220
v 1.68114910124719 0.13518470727046 -0.88379444242215
v 1.77285597410695 0.13957371493627 -0.86541915853905
v 1.78564627884859 0.24915942644983 -0.88805672488279
v 1.87703302300600 0.24875479315311 -0.80079544992153
v 1.84901023251329 0.13886951057223 -0.79247329645476
v 1.86810021334513 0.13379152482699 -0.70521861572925
v 1.76914158547695 0.02656696500859 -0.70103625982028
v 1.76639153957005 0.04952981264383 0.78934387036626
v 1.76914158547695 0.02656696500859 0.70103625982028
v 1.86810021334513 0.13379152482699 0.70521861572925
v 1.84901023251329 0.13886951057223 0.79247329645476
v 1.87703302300600 0.24875479315311 0.80079544992153
v 1.78564627884859 0.24915942644983 0.88805672488279
v 1.77285597410695 0.13957371493627 0.86541915853905
v 1.68114910124719 0.13518470727046 0.88379444242215
v 1.67256295565408 0.02699309335692 0.79279988562220
v -1.94771963642575 2.35829084049112 0.88192543011441
v -1.95809618255377 2.25124515899268 0.88088409438886
v -1.87049068781599 2.25084049673800 0.96812075261282
v -1.87560840937994 2.35855337118684 0.95370697999146
v -1.78848673714069 2.36291302396229 0.97235102176790
v -1.79767462432090 2.47231204360610 0.88909075453004
v -1.88229302357251 2.44883593238864 0.88522116842199
v -1.88714652002375 2.47204974374398 0.79885419539416
v -1.96652456409062 2.36241275026857 0.79435969019376
v -1.94771963642575 2.35829084049112 -0.88192543011441
v -1.96652456409062 2.36241275026857 -0.79435969019376
v -1.88714652002375 2.47204974374398 -0.79885419539416
v -1.88229302357251 2.44883593238864 -0.88522116842199
v -1.79767462432090 2.47231204360610 -0.88909075453004
v -1.78848673714069 2.36291302396229 -0.97235102176790
v -1.87560840937994 2.35855337118684 -0.95370697999146
v -1.87049068781599 2.25084049673800 -0.96812075261282
v -1.95809618255377 2.25124515899268 -0.88088409438886
v 1.87560840937994 2.35855337118684 -0.95370697999146
v 1.78848673714069 2.36291302396229 -0.97235102176790
v 1.79767462432090 2.47231204360610 -0.88909075453004
v 1.88229302357251 2.44883593238864 -0.88522116842199
v 1.88714652002375 2.47204974374398 -0.79885419539416
v 1.96652456409062 2.36241275026857 -0.79435969019376
v 1.94771963642575 2.35829084049112 -0.88192543011441
v 1.95809618255377 2.25124515899268 -0.88088409438886
v 1.87049068781599 2.25084049673800 -0.96812075261282
v 1.88229302357251 2.44883593238864 0.88522116842199
v 1.79767462432090 2.47231204360610 0.88909075453004
v 1.78848673714069 2.36291302396229 0.97235102176790
v 1.87560840937994 2.35855337118684 0.95370697999146
v 1.87049068781599 2.25084049673800 0.96812075261282
v 1.95809618255377 2.25124515899268 0.88088409438886
v 1.94771963642575 2.35829084049112 0.88192543011441
v 1.96652456409062 2.36241275026857 0.79435969019376
v 1.88714652002375 2.47204974374398 0.79885419539416
# 96 vertices

vn -0.11055587033439 -0.13626206594601 -0.98448466159648
vn -0.11380268593524 0.04858983663595 -0.99231445441937
vn 0.11380208465079 0.04859217760697 -0.99231440874581
vn 0.11055531620908 -0.13625972875267 -0.98448504731060
vn 0.98049440300209 -0.15677123139564 -0.11854748706010
vn 0.99256863700349 0.03366195867481 -0.11693747635044
vn 0.99256863841647 0.03366181141498 0.11693750674760
vn 0.98049437749895 -0.15677137632956 0.11854750632836
vn 0.11055587033439 -0.13626206594601 0.98448466159648
vn 0.11380268593524 0.04858983663595 0.99231445441937
vn -0.11380208465079 0.04859217760697 0.99231440874581
vn -0.11055531620908 -0.13625972875267 0.98448504731060
vn -0.98049438065548 -0.15677136193309 0.11854749925942
vn -0.99256863700349 0.03366195867481 0.11693747635044
vn -0.99256863841647 0.03366181141498 -0.11693750674760
vn -0.98049435745490 -0.15677149770496 -0.11854751159953
vn -0.15037914461007 0.97765689592359 -0.14687786327213
vn -0.15037914461007 0.97765689592359 0.14687786327213
vn 0.15037914461007 0.97765689592359 0.14687786327213
vn 0.15037914461007 0.97765689592359 -0.14687786327213
vn -0.12762032460245 -0.98233008469373 0.13689652097104
vn -0.12762032460245 -0.98233008469373 -0.13689652097104
vn 0.12762032460245 -0.98233008469373 -0.13689652097104
vn 0.12762032460245 -0.98233008469373 0.13689652097104
vn -0.87078103357135 0.01456787579087 -0.49145515417721
vn -0.85602671180193 -0.15504093517493 -0.49313342728076
vn -0.10895197428627 0.38130201454841 -0.91800775650342
vn 0.10895204178360 0.38130198629337 -0.91800776022859
vn 0.85602888783244 -0.15501911456141 -0.49313650981949
vn 0.87078060656719 0.01457649129273 -0.49145565530174
vn 0.10089395690247 -0.44865717371969 -0.88799051229753
vn -0.10085795053814 -0.44865944888658 -0.88799345309413
vn 0.58267069761698 0.80284014854619 0.12626382704822
vn 0.58267147742017 0.80284058714918 -0.12625743949153
vn 0.87078103357135 0.01456787579087 0.49145515417721
vn 0.85602671180193 -0.15504093517493 0.49313342728076
vn 0.51161980401849 -0.85091250757136 -0.11913471616072
vn 0.51161807795076 -0.85091155800003 0.11914891009122
vn 0.10895197428627 0.38130201454841 0.91800775650342
vn -0.10895204178360 0.38130198629337 0.91800776022859
vn -0.85602888783244 -0.15501911456141 0.49313650981949
vn -0.87078060656719 0.01457649129273 0.49145565530174
vn -0.10089395690247 -0.44865717371969 0.88799051229753
vn 0.10085795053814 -0.44865944888658 0.88799345309413
vn -0.58267069761698 0.80284014854619 -0.12626382704822
vn -0.58267147742017 0.80284058714918 0.12625743949153
vn -0.51161994392119 -0.85091242277878 0.11913472097935
vn -0.51161820905123 -0.85091147864411 -0.11914891388056
vn -0.43107385412721 -0.43340990922010 0.79141088119746
vn -0.45753189823829 -0.74728083451207 0.48190861837636
vn -0.11101684237404 -0.83553513590757 0.53810435546762
vn -0.76596357870195 -0.45121238537281 -0.45793796456319
vn -0.45749590023610 -0.74728780256304 -0.48193198836315
vn -0.86719073449329 -0.48571277552069 -0.10983319036148
vn 0.43107385412721 -0.43340990922010 -0.79141088119746
vn 0.45753189823829 -0.74728083451207 -0.48190861837636
vn 0.11101684237404 -0.83553513590757 -0.53810435546762
vn 0.76596357870195 -0.45121238537281 0.45793796456319
vn 0.45749590023610 -0.74728780256304 0.48193198836315
vn 0.86719070796819 -0.48571282026865 0.10983320190313
vn -0.46771084780934 0.32067512198940 0.82365892757776
vn -0.82640127920399 0.31052258081900 0.46971975957109
vn -0.48235918330800 0.02113334944571 0.87571856199332
vn -0.51982751109031 0.68068392645558 -0.51618674041346
vn -0.82639985281978 0.31051677091703 -0.46972610981157
vn -0.92731754525518 0.35788066937205 -0.10956092712151
vn 0.51982973609624 0.68068623558589 -0.51618145467852
vn 0.46771084780934 0.32067512198940 -0.82365892757776
vn 0.12729856145721 0.81066696395693 -0.57150166211463
vn 0.46771143794134 0.32067076679503 0.82366028806901
vn 0.51982749509671 0.68068390551290 0.51618678413651
vn 0.12729849233114 0.81066696292686 0.57150167897318
vn -0.76597538609771 -0.45120005055575 0.45793036836505
vn -0.47052016224057 -0.14538015230479 0.87033062007547
vn -0.86719183601660 -0.48571398365469 0.10981914964366
vn 0.00000000000000 0.00000000000000 0.00000000000000
vn -0.43103656580332 -0.43343383467078 -0.79141808793018
vn -0.47051841815154 -0.14540419228052 -0.87032754698873
vn -0.11098031652205 -0.83553707242388 -0.53810888298744
vn 0.76597538609771 -0.45120005055575 -0.45793036836505
vn 0.47052016224057 -0.14538015230479 -0.87033062007547
vn 0.86719180949159 -0.48571402840268 -0.10981916118576
vn 0.43103656580332 -0.43343383467078 0.79141808793018
vn 0.47051841815154 -0.14540419228052 0.87032754698873
vn 0.11098031652205 -0.83553707242388 0.53810888298744
vn -0.51982973609624 0.68068623558589 0.51618145467852
vn -0.12729856145721 0.81066696395693 0.57150166211463
vn -0.92731807360685 0.35788121628966 0.10955466849533
vn -0.46771145707562 0.32067076885020 -0.82366027640358
vn -0.12729849233114 0.81066696292686 -0.57150167897318
vn -0.48236047882543 0.02112248152549 -0.87571811060495
vn 0.82640127920399 0.31052258081900 -0.46971975957109
vn 0.92731807360685 0.35788121628966 -0.10955466849533
vn 0.48235918330800 0.02113334944571 -0.87571856199332
vn 0.82639982968235 0.31051676222323 0.46972615626489
vn 0.48236047882543 0.02112248152549 0.87571811060495
vn 0.92731754525518 0.35788066937205 0.10956092712151
# 97 normals

o Hedge_S
usemtl default
f 9//1 10//2 11//3 12//4
f 17//5 18//6 19//7 20//8
f 21//9 22//10 23//11 24//12
f 5//13 6//14 7//15 8//16
f 13//17 14//18 15//19 16//20
f 1//21 2//22 3//23 4//24
f 7//15 78//25 38//26 8//16
f 10//2 75//27 80//28 11//3
f 17//5 48//29 86//30 18//6
f 12//4 45//31 41//32 9//1
f 15//19 96//33 83//34 16//20
f 19//7 93//35 56//36 20//8
f 3//23 51//37 53//38 4//24
f 22//10 90//39 65//40 23//11
f 5//13 30//41 62//42 6//14
f 24//12 27//43 59//44 21//9
f 13//17 72//45 68//46 14//18
f 1//21 33//47 35//48 2//22
f 28//49 25//50 26//51 27//43
f 37//52 34//53 35//48 36//54
f 46//55 43//56 44//57 45//31
f 55//58 52//59 53//38 54//60
f 64//61 61//62 62//42 63//63
f 73//64 70//65 71//66 72//45
f 82//67 79//68 80//28 81//69
f 91//70 88//71 89//72 90//39
f 31//73 28//49 29//74 30//41
f 25//50 31//73 32//75 33//47
f 25//50 28//49 31//73
f 28//49 27//43 24//12 29//74
f 31//73 30//41 5//13 32//75
f 25//50 33//47 1//21 26//51
f 40//77 37//52 38//26 39//78
f 34//53 40//77 41//32 42//79
f 34//53 37//52 40//77
f 37//52 36//54 8//16 38//26
f 40//77 39//78 9//1 41//32
f 34//53 42//79 2//22 35//48
f 49//80 46//55 47//81 48//29
f 43//56 49//80 50//82 51//37
f 43//56 46//55 49//80
f 46//55 45//31 12//4 47//81
f 49//80 48//29 17//5 50//82
f 43//56 51//37 3//23 44//57
f 58//83 55//58 56//36 57//84
f 52//59 58//83 59//44 60//85
f 52//59 55//58 58//83
f 55//58 54//60 20//8 56//36
f 58//83 57//84 21//9 59//44
f 52//59 60//85 4//24 53//38
f 67//86 64//61 65//40 66//87
f 61//62 67//86 68//46 69//88
f 61//62 64//61 67//86
f 64//61 63//63 23//11 65//40
f 67//86 66//87 14//18 68//46
f 61//62 69//88 6//14 62//42
f 76//89 73//64 74//90 75//27
f 70//65 76//89 77//91 78//25
f 70//65 73//64 76//89
f 73//64 72//45 13//17 74//90
f 76//89 75//27 10//2 77//91
f 70//65 78//25 7//15 71//66
f 85//92 82//67 83//34 84//93
f 79//68 85//92 86//30 87//94
f 79//68 82//67 85//92
f 82//67 81//69 16//20 83//34
f 85//92 84//93 18//6 86//30
f 79//68 87//94 11//3 80//28
f 94//95 91//70 92//96 93//35
f 88//71 94//95 95//97 96//33
f 88//71 91//70 94//95
f 91//70 90//39 22//10 92//96
f 94//95 93//35 19//7 95//97
f 88//71 96//33 15//19 89//72
f 78//25 77//91 39//78 38//26
f 77//91 10//2 9//1 39//78
f 75//27 74//90 81//69 80//28
f 74//90 13//17 16//20 81//69
f 48//29 47//81 87//94 86//30
f 47//81 12//4 11//3 87//94
f 45//31 44//57 42//79 41//32
f 44//57 3//23 2//22 42//79
f 96//33 95//97 84//93 83//34
f 95//97 19//7 18//6 84//93
f 93//35 92//96 57//84 56//36
f 92//96 22//10 21//9 57//84
f 51//37 50//82 54//60 53//38
f 50//82 17//5 20//8 54//60
f 90//39 89//72 66//87 65//40
f 89//72 15//19 14//18 66//87
f 30//41 29//74 63//63 62//42
f 29//74 24//12 23//11 63//63
f 27//43 26//51 60//85 59//44
f 26//51 1//21 4//24 60//85
f 72//45 71//66 69//88 68//46
f 71//66 7//15 6//14 69//88
f 33//47 32//75 36//54 35//48
f 32//75 5//13 8//16 36//54

