# WaveFront *.obj file (generated by CINEMA 4D)

mtllib ./Hedge_L.mtl

v -3.90000000000000 0.00000000000000 0.69975975967315
v -3.96077677297236 2.25485483107727 0.78995395291624
v -3.96077677297236 2.25485483107727 -0.78995395291624
v -3.90000000000000 0.00000000000000 -0.69975975967315
v -3.67905308446457 0.00000000000000 -0.90000000000000
v -3.75609890748910 2.25031191528054 -0.99001247661122
v 3.75609890748910 2.25031191528054 -0.99001247661122
v 3.67905308446457 0.00000000000000 -0.90000000000000
v -3.80000000000000 2.50000000000000 -0.80000000000000
v -3.80000000000000 2.50000000000000 0.80000000000000
v 3.80000000000000 2.50000000000000 0.80000000000000
v 3.80000000000000 2.50000000000000 -0.80000000000000
v 3.90000000000000 0.00000000000000 -0.69975975967315
v 3.96077677297236 2.25485483107727 -0.78995395291624
v 3.96077677297236 2.25485483107727 0.78995395291624
v 3.90000000000000 0.00000000000000 0.69975975967315
v 3.67905308446457 0.00000000000000 0.90000000000000
v 3.75609890748910 2.25031191528054 0.99001247661122
v -3.75609890748910 2.25031191528054 0.99001247661122
v -3.67905308446457 0.00000000000000 0.90000000000000
v -3.87177633360896 0.00000000000000 0.79768558248751
v -3.78710533443583 0.00000000000000 0.87442139562188
v -3.93562081995657 2.35853860402991 0.88244068013505
v -3.93836214030646 2.25445850432757 0.88101093563629
v -3.84918858638134 2.25247930070271 0.96820124175984
v -3.86291735835106 2.35887606583370 0.95372639566463
v -3.77589824036853 2.36292090113116 0.97237698539514
v -3.79512835890448 2.47229247235069 0.88911226973306
v -3.87668037101626 2.44860011087849 0.88572941165166
v -3.88315674789729 2.47168831443383 0.79883978734940
v -3.95487913184861 2.36233254176315 0.79435838865018
v -3.93562081995657 2.35853860402991 -0.88244068013505
v -3.95487913184862 2.36233254176315 -0.79435838865018
v -3.88315674789729 2.47168831443383 -0.79883978734940
v -3.87668037101626 2.44860011087849 -0.88572941165166
v -3.79512835890448 2.47229247235069 -0.88911226973306
v -3.77589824036853 2.36292090113116 -0.97237698539514
v -3.86291735835106 2.35887606583370 -0.95372639566463
v -3.84918858638134 2.25247930070271 -0.96820124175984
v -3.93836214030646 2.25445850432757 -0.88101093563629
v -3.87177633360896 0.00000000000000 -0.79768558248751
v -3.78710533443583 0.00000000000000 -0.87442139562188
v 3.86291735835106 2.35887606583370 -0.95372639566463
v 3.77589824036853 2.36292090113116 -0.97237698539514
v 3.79512835890448 2.47229247235069 -0.88911226973306
v 3.87668037101626 2.44860011087849 -0.88572941165166
v 3.88315674789729 2.47168831443383 -0.79883978734940
v 3.95487913184861 2.36233254176315 -0.79435838865018
v 3.93562081995657 2.35853860402991 -0.88244068013505
v 3.93836214030646 2.25445850432757 -0.88101093563629
v 3.84918858638134 2.25247930070271 -0.96820124175984
v 3.78710533443582 0.00000000000000 -0.87442139562188
v 3.87177633360896 0.00000000000000 -0.79768558248751
v 3.87668037101626 2.44860011087849 0.88572941165166
v 3.79512835890448 2.47229247235069 0.88911226973306
v 3.77589824036853 2.36292090113116 0.97237698539514
v 3.86291735835106 2.35887606583370 0.95372639566463
v 3.84918858638134 2.25247930070271 0.96820124175984
v 3.93836214030646 2.25445850432757 0.88101093563629
v 3.93562081995657 2.35853860402991 0.88244068013505
v 3.95487913184861 2.36233254176315 0.79435838865018
v 3.88315674789729 2.47168831443383 0.79883978734940
v 3.87177633360896 0.00000000000000 0.79768558248751
v 3.78710533443583 0.00000000000000 0.87442139562188
# 64 vertices

vn -0.11552781777182 -0.04366235125029 -0.99234415522246
vn -0.11329504648840 0.04462178718276 -0.99255887913504
vn 0.11329522105717 0.04462071928690 -0.99255890721706
vn 0.11552813680738 -0.04366447788484 -0.99234402450806
vn 0.99098760737323 -0.03232352835768 -0.12999519816974
vn 0.99248009725195 0.00609932326445 -0.12225405847857
vn 0.99248029547818 0.00608147970857 0.12225333816345
vn 0.99098665052510 -0.03235922949027 0.12999361041162
vn 0.11552781777182 -0.04366235125029 0.99234415522246
vn 0.11329504648840 0.04462178718276 0.99255887913504
vn -0.11329522105717 0.04462071928690 0.99255890721706
vn -0.11552813680738 -0.04366447788484 0.99234402450806
vn -0.99098760737323 -0.03232352835768 0.12999519816974
vn -0.99248009725195 0.00609932326445 0.12225405847857
vn -0.99248029547818 0.00608147970857 -0.12225333816345
vn -0.99098665052510 -0.03235922949027 -0.12999361041162
vn -0.15823307051060 0.97620507462297 -0.14827659180445
vn -0.15823307051060 0.97620507462297 0.14827659180445
vn 0.15823307051060 0.97620507462297 0.14827659180445
vn 0.15823307051060 0.97620507462297 -0.14827659180445
vn -0.00000000000000 -1.00000000000000 0.00000000000000
vn -0.00000000000000 -1.00000000000000 0.00000000000000
vn -0.00000000000000 -1.00000000000000 0.00000000000000
vn -0.00000000000000 -1.00000000000000 -0.00000000000000
vn -0.00000000000000 -1.00000000000000 -0.00000000000000
vn -0.00000000000000 -1.00000000000000 -0.00000000000000
vn 0.00000000000000 -1.00000000000000 0.00000000000000
vn -0.00000000000000 -1.00000000000000 -0.00000000000000
vn -0.00000000000000 -1.00000000000000 -0.00000000000000
vn -0.00000000000000 -1.00000000000000 -0.00000000000000
vn 0.00000000000000 -1.00000000000000 0.00000000000000
vn 0.00000000000000 -1.00000000000000 0.00000000000000
vn -0.47332235385921 -0.04909517907155 -0.87952010365262
vn -0.47633199768161 0.00558546777770 -0.87924776402010
vn 0.13095463628391 0.80724446831635 -0.57550608303336
vn -0.13100598994507 0.80723960698753 -0.57550121416825
vn 0.47633202233196 0.00560431943318 -0.87924763070755
vn 0.47331499762679 -0.04914356302320 -0.87952136030624
vn 0.94597556550212 0.30428921012859 -0.11197457779453
vn 0.94597491027048 0.30428856315576 0.11198187117281
vn 0.47332235385921 -0.04909517907155 0.87952010365262
vn 0.47633199768161 0.00558546777770 0.87924776402010
vn -0.13095463628391 0.80724446831635 0.57550608303336
vn 0.13100598994507 0.80723960698753 0.57550121416825
vn -0.47633202233196 0.00560431943318 0.87924763070755
vn -0.47331499762679 -0.04914356302320 0.87952136030624
vn -0.94597556550212 0.30428921012859 0.11197457779453
vn -0.94597491027048 0.30428856315576 -0.11198187117281
vn -0.46869005781280 0.28911843296512 0.83470962701243
vn -0.83806960580636 0.25890162218249 0.48021795661434
vn -0.86508539713109 -0.01144350644133 0.50149406958693
vn -0.53531880018411 0.65888155530457 -0.52849681006499
vn -0.83807409041600 0.25885894966240 -0.48023313416826
vn -0.60735812158429 0.78382380124593 -0.12936908728899
vn 0.53527924958793 0.65890482044900 -0.52850786422687
vn 0.46869005781280 0.28911843296512 -0.83470962701243
vn 0.10822841702762 0.37399155921132 -0.92109550177296
vn 0.46873653371789 0.28906501751208 0.83470202923491
vn 0.53531880018411 0.65888155530457 0.52849681006499
vn 0.10827862528825 0.37398526271043 0.92109215748540
vn -0.53527924910632 0.65890477401753 0.52850792260200
vn -0.10822841702762 0.37399155921132 0.92109550177296
vn -0.60735904541292 0.78382431648840 0.12936162814606
vn 0.00000000000000 0.00000000000000 0.00000000000000
vn -0.46873653371789 0.28906501751208 -0.83470202923491
vn -0.10827862528825 0.37398526271043 -0.92109215748540
vn -0.86508487054769 -0.01148190141836 -0.50149410035344
vn 0.83806960580636 0.25890162218249 -0.48021795661434
vn 0.60735904541292 0.78382431648840 -0.12936162814606
vn 0.86508539713109 -0.01144350644133 -0.50149406958693
vn 0.83807409041600 0.25885894966240 0.48023313416826
vn 0.86508487054769 -0.01148190141836 0.50149410035344
vn 0.60735812158429 0.78382380124593 0.12936908728899
vn -0.85789885318294 -0.04434108911344 -0.51190177331558
vn 0.85789481477506 -0.04435086374732 -0.51190769447912
vn 0.85789885318294 -0.04434108911344 0.51190177331558
vn -0.85789481477506 -0.04435086374732 0.51190769447912
# 77 normals

o Hedge_L
usemtl default
f 5//1 6//2 7//3 8//4
f 13//5 14//6 15//7 16//8
f 17//9 18//10 19//11 20//12
f 1//13 2//14 3//15 4//16
f 9//17 10//18 11//19 12//20
f 20//21 22//22 21//23 1//23 4//24 41//22 42//21 5//25 8//22 52//24 53//26 13//27 16//25 63//28 64//28 17//24
f 1 1 1
f 1 1 1
f 1 1 1
f 1 1 1
f 1 1 1
f 1 1 1
f 5//1 42//33 39//34 6//2
f 12//20 45//35 36//36 9//17
f 7//3 51//37 52//38 8//4
f 14//6 48//39 61//40 15//7
f 17//9 64//41 58//42 18//10
f 10//18 28//43 55//44 11//19
f 19//11 25//45 22//46 20//12
f 2//14 31//47 33//48 3//15
f 26//49 23//50 24//51 25//45
f 35//52 32//53 33//48 34//54
f 46//55 43//56 44//57 45//35
f 57//58 54//59 55//44 56//60
f 29//61 26//49 27//62 28//43
f 23//50 29//61 30//63 31//47
f 23//50 26//49 29//61
f 26//49 25//45 19//11 27//62
f 29//61 28//43 10//18 30//63
f 23//50 31//47 2//14 24//51
f 38//65 35//52 36//36 37//66
f 32//53 38//65 39//34 40//67
f 32//53 35//52 38//65
f 35//52 34//54 9//17 36//36
f 38//65 37//66 6//2 39//34
f 32//53 40//67 3//15 33//48
f 49//68 46//55 47//69 48//39
f 43//56 49//68 50//70 51//37
f 43//56 46//55 49//68
f 46//55 45//35 12//20 47//69
f 49//68 48//39 14//6 50//70
f 43//56 51//37 7//3 44//57
f 60//71 57//58 58//42 59//72
f 54//59 60//71 61//40 62//73
f 54//59 57//58 60//71
f 57//58 56//60 18//10 58//42
f 60//71 59//72 15//7 61//40
f 54//59 62//73 11//19 55//44
f 42//33 41//74 40//67 39//34
f 41//74 4//16 3//15 40//67
f 45//35 44//57 37//66 36//36
f 44//57 7//3 6//2 37//66
f 51//37 50//70 53//75 52//38
f 50//70 14//6 13//5 53//75
f 48//39 47//69 62//73 61//40
f 47//69 12//20 11//19 62//73
f 64//41 63//76 59//72 58//42
f 63//76 16//8 15//7 59//72
f 28//43 27//62 56//60 55//44
f 27//62 19//11 18//10 56//60
f 25//45 24//51 21//77 22//46
f 24//51 2//14 1//13 21//77
f 31//47 30//63 34//54 33//48
f 30//63 10//18 9//17 34//54

